<svg width="150" height="189" viewBox="0 0 150 189" fill="none" xmlns="http://www.w3.org/2000/svg">
<path d="M8.63776 128.441H0.135574L3.28724 139.524L0.135574 150.607H8.56448L8.63776 138.481V128.441Z" fill="#00539F"/>
<path d="M141.501 128.441H149.93L146.778 139.524L149.93 150.607H141.501V138.481L141.501 128.441Z" fill="#00539F"/>
<path d="M8.45129 32.9472L74.8025 0.987305L141.501 32.9472V155.657L75.15 188.012L8.45129 155.657V32.9472Z" fill="white"/>
<path d="M12.6091 36.5953L74.8576 6.5293L137.432 36.5953V152.034L75.1831 182.471L12.6091 152.034V36.5953Z" fill="url(#paint0_linear_902_148)"/>
<path d="M74.0429 57.2867L72.3838 56.1059H74.4203L75.0989 53.9805L75.7025 56.1059H77.7387L76.0795 57.2867L76.6827 59.3332L75.0235 58.0739L73.289 59.3332L74.0429 57.2867Z" fill="#2AD2FF"/>
<path d="M84.1013 57.2867L82.5295 56.1059H84.4584L85.1015 53.9805L85.6731 56.1059H87.602L86.0302 57.2867L86.6019 59.3332L85.0301 58.0739L83.3868 59.3332L84.1013 57.2867Z" fill="#2AD2FF"/>
<path d="M64.6225 57.2867L62.9633 56.1059H64.9995L65.6781 53.9805L66.2817 56.1059H68.3178L66.6586 57.2867L67.2618 59.3332L65.6027 58.0739L63.9435 59.3332L64.6225 57.2867Z" fill="#2AD2FF"/>
<path d="M75.3227 43.9335C75.2446 43.8562 75.2446 43.9335 75.3227 43.9335L74.9318 43.7006L74.8536 43.6233L65.6298 37.1021C65.6298 37.1021 65.5516 37.1021 65.5516 37.0248L65.3952 36.8694L65.317 36.7918H65.1606L62.5029 34.9287L67.7402 35.705C67.9747 35.705 68.0529 35.7826 68.2875 35.8603C68.3657 35.8603 68.5221 35.9379 68.5221 35.9379C68.7567 36.0155 68.8344 36.0932 68.9908 36.1708C69.1472 36.2484 69.2254 36.3261 69.3818 36.4037C69.46 36.4813 69.6164 36.5589 69.6164 36.6365C69.6946 36.7142 69.7727 36.7142 69.8509 36.7918C70.0073 36.8694 70.0855 36.947 70.0855 37.0248C70.3197 37.2577 70.4761 37.4905 70.7106 37.6457L74.8536 43.4678L74.9318 43.5455L75.3227 43.9335Z" fill="#18AAD1"/>
<path d="M75.2446 52.9386L74.8536 52.3173L74.7754 52.24L62.5029 34.9287L65.1606 36.7918L65.6298 37.1021L74.8536 43.6233H74.9318L75.2446 43.8562C75.2446 43.8562 75.3227 43.8562 75.3227 43.9335L75.7137 43.6233L88.1426 34.9287L75.6355 52.3173L75.5573 52.3951L75.2446 52.9386Z" fill="url(#paint1_linear_902_148)"/>
<path d="M75.3914 41.1633L75.0483 40.5572L74.98 40.4814L72.3064 36.3902L74.98 36.9965H75.0483L75.3914 37.0723L75.734 36.9965L78.3391 36.3145L75.734 40.5572V40.6329L75.3914 41.1633Z" fill="#18AAD1"/>
<path d="M88.1426 34.9287L84.2812 35.4675L82.814 35.6984C81.6555 35.8523 80.5743 36.468 79.8794 37.4686L75.7863 43.3178L75.7089 43.3948L75.3227 43.9335L75.7863 43.4717L75.8633 43.3948L75.3227 43.9335L85.7485 36.545L88.1426 34.9287Z" fill="#18AAD1"/>
<path d="M76.8307 22.8416C76.8307 26.2757 70.9827 28.0708 70.9827 31.7392C70.9057 32.5977 71.1363 33.4562 71.5213 34.2367C71.5213 34.2367 69.2896 32.0514 69.2896 29.7099C69.2896 27.3684 71.4443 23.8562 71.4443 23.8562C71.4443 25.4172 72.0598 25.8855 72.6754 25.9635H72.7524C73.4449 25.9635 73.8295 25.4172 73.8295 24.6367C73.8295 23.8562 72.9834 23.0757 72.9834 21.5147C72.9834 20.0318 74.8301 17.6123 74.8301 17.6123C76.1382 19.1733 76.8307 20.9684 76.8307 22.8416Z" fill="#2AD2FF"/>
<path d="M75.8114 34.9293C73.8084 34.9293 72.3064 33.5191 72.3064 31.8122V31.738C72.3064 27.9529 78.2314 27.5819 78.2314 22.4609C78.3985 22.6836 79.9839 24.6132 79.9839 26.6912C79.9839 29.2888 77.23 29.9568 77.23 31.2184C77.23 31.738 77.4806 32.109 78.3148 32.109C78.3985 32.109 78.4819 32.109 78.5653 32.0348C80.1511 31.4411 81.2358 30.1052 81.3191 28.5467C81.3191 28.6209 82.1537 34.9293 75.8114 34.9293Z" fill="#2AD2FF"/>
<path d="M78.4221 32.1098C78.5669 32.064 78.2126 32.2864 78.0315 32.3317C76.9608 32.5993 75.6219 33.1345 75.2617 31.4477C75.2617 28.9471 79.212 28.4 79.212 26.2901C79.212 24.9616 78.9247 23.6331 78.2781 22.4609C78.4221 22.6954 79.9057 24.5234 79.9057 26.7115C79.9057 29.4466 77.4164 29.8435 77.4164 31.1721C77.4882 31.7191 77.7754 32.1098 78.4221 32.1098Z" fill="#18AAD1"/>
<path d="M74.6298 24.1842C74.6298 26.1172 72.5007 25.9625 72.3674 25.8852H72.5673C73.1661 25.8852 73.4988 25.344 73.4988 24.5709C73.4988 23.7977 72.7668 23.0245 72.7668 21.4782C72.7668 20.0091 74.8189 17.6123 74.8189 17.6123C74.2867 18.6175 73.5654 19.6999 73.4988 20.7823C73.4988 22.5606 74.6298 22.7152 74.6298 24.1842Z" fill="#18AAD1"/>
<path d="M39.1074 101.426C44.0318 101.426 47.5895 98.4354 47.5895 93.5604C47.5895 88.685 44.0318 85.7178 39.0839 85.7178H32.4868V101.426H39.1074ZM39.0839 97.8935H36.5393V89.2505H39.1074C41.9817 89.2505 43.4426 91.1343 43.4426 93.5604C43.4426 95.8917 41.8404 97.8935 39.0839 97.8935Z" fill="white"/>
<path d="M61.362 101.426V97.8935H53.8935V95.2325H61.1972V91.6998H53.8935V89.2505H61.362V85.7178H49.8407V101.426H61.362Z" fill="white"/>
<path d="M69.7939 101.709C74.011 101.709 76.3436 99.6133 76.3436 96.4575C76.3436 90.6166 67.4613 92.0769 67.4613 90.1457C67.4613 89.4626 67.9795 89.0622 69.1576 89.0622C70.7126 89.0622 72.4324 89.6041 73.7521 90.7107L75.9666 87.6729C74.2939 86.2361 72.1029 85.4824 69.5817 85.4824C65.5528 85.4824 63.3383 87.8376 63.3383 90.4755C63.3383 96.528 72.2206 94.8089 72.2206 96.8814C72.2206 97.6586 71.3725 98.1295 70.0057 98.1295C67.8383 98.1295 66.0946 97.1876 64.964 96.0571L62.8197 99.213C64.3983 100.696 66.6132 101.709 69.7939 101.709Z" fill="white"/>
<path d="M82.5271 101.426V85.7178H78.4747V101.426H82.5271Z" fill="white"/>
<path d="M93.2944 101.709C96.2629 101.709 98.5719 100.508 100.245 98.6476V92.4068H92.6581V95.9631H96.1923V97.1877C95.627 97.6586 94.4489 98.1296 93.2944 98.1296C90.7261 98.1296 88.9121 96.1513 88.9121 93.5844C88.9121 90.9936 90.7261 89.0388 93.2944 89.0388C94.8259 89.0388 96.0275 90.0046 96.6164 91.0406L100.009 89.2744C98.9254 87.3197 96.8051 85.459 93.2944 85.459C88.6057 85.459 84.7887 88.5913 84.7887 93.5844C84.7887 98.577 88.6057 101.709 93.2944 101.709Z" fill="white"/>
<path d="M117.46 101.426V85.7178H113.384V94.3612L107.022 85.7178H102.852V101.426H106.905V92.3354L113.548 101.426H117.46Z" fill="white"/>
<path d="M54.063 117.359L50.4104 107.656H47.2524L43.5997 117.359H46.4374L46.9177 115.962H50.7451L51.225 117.359H54.063ZM50.0609 113.781H47.6015L48.8386 110.129L50.0609 113.781Z" fill="white"/>
<path d="M64.37 117.359L67.1493 107.656H64.3261L62.8711 114.13L61.212 107.656H59.2911L57.6323 114.13L56.1622 107.656H53.3537L56.1331 117.359H58.7817L60.2517 111.278L61.7214 117.359H64.37Z" fill="white"/>
<path d="M76.893 117.359L73.2403 107.656H70.0823L66.4297 117.359H69.2677L69.7476 115.962H73.575L74.0553 117.359H76.893ZM72.8912 113.781H70.4318L71.6685 110.129L72.8912 113.781Z" fill="white"/>
<path d="M86.0358 117.359L84.0566 113.795C84.9734 113.475 85.9919 112.573 85.9919 110.886C85.9919 109.082 84.7695 107.656 82.6157 107.656H77.7554V117.359H80.2584V114.1H81.539L83.169 117.359H86.0358ZM82.2375 111.918H80.2584V109.838H82.2375C82.9069 109.838 83.4455 110.202 83.4455 110.871C83.4455 111.555 82.9069 111.918 82.2375 111.918Z" fill="white"/>
<path d="M91.6113 117.359C94.6524 117.359 96.8501 115.511 96.8501 112.501C96.8501 109.489 94.6524 107.656 91.5965 107.656H87.5218V117.359H91.6113ZM91.5965 115.177H90.0247V109.838H91.6113C93.3866 109.838 94.2886 111.002 94.2886 112.501C94.2886 113.941 93.2992 115.177 91.5965 115.177Z" fill="white"/>
<path d="M101.85 117.533C104.454 117.533 105.895 116.238 105.895 114.289C105.895 110.682 100.409 111.583 100.409 110.391C100.409 109.969 100.729 109.722 101.457 109.722C102.417 109.722 103.479 110.056 104.294 110.74L105.662 108.863C104.629 107.976 103.276 107.511 101.719 107.511C99.2302 107.511 97.8622 108.965 97.8622 110.594C97.8622 114.333 103.348 113.271 103.348 114.551C103.348 115.031 102.825 115.322 101.98 115.322C100.642 115.322 99.5649 114.74 98.8664 114.042L97.5419 115.991C98.5169 116.907 99.8848 117.533 101.85 117.533Z" fill="white"/>
<path d="M67.7509 165.154V163.942H65.112C66.7903 162.72 67.7023 161.76 67.7023 160.655C67.7023 159.365 66.606 158.589 65.2285 158.589C64.3265 158.589 63.3658 158.919 62.7351 159.646L63.521 160.558C63.9574 160.102 64.5203 159.811 65.2576 159.811C65.7914 159.811 66.3056 160.092 66.3056 160.655C66.3056 161.45 65.5293 162.119 62.8807 164.078V165.154H67.7509Z" fill="#2AD2FF"/>
<path d="M72.0255 165.271C73.869 165.271 74.7032 163.593 74.7032 161.925C74.7032 160.257 73.869 158.589 72.0255 158.589C70.1725 158.589 69.3479 160.257 69.3479 161.925C69.3479 163.593 70.1725 165.271 72.0255 165.271ZM72.0255 164.048C71.094 164.048 70.7449 163.118 70.7449 161.925C70.7449 160.732 71.094 159.811 72.0255 159.811C72.9471 159.811 73.2965 160.732 73.2965 161.925C73.2965 163.118 72.9471 164.048 72.0255 164.048Z" fill="#2AD2FF"/>
<path d="M81.1364 165.154V163.942H78.4975C80.1758 162.72 81.0878 161.76 81.0878 160.655C81.0878 159.365 79.9915 158.589 78.614 158.589C77.7116 158.589 76.7513 158.919 76.1206 159.646L76.9065 160.558C77.3429 160.102 77.9058 159.811 78.6431 159.811C79.1769 159.811 79.6907 160.092 79.6907 160.655C79.6907 161.45 78.9148 162.119 76.2662 164.078V165.154H81.1364Z" fill="#2AD2FF"/>
<path d="M87.7297 165.154V163.942H85.0907C86.769 162.72 87.681 161.76 87.681 160.655C87.681 159.365 86.5847 158.589 85.2072 158.589C84.3052 158.589 83.3445 158.919 82.7138 159.646L83.4997 160.558C83.9362 160.102 84.4991 159.811 85.2363 159.811C85.7701 159.811 86.2843 160.092 86.2843 160.655C86.2843 161.45 85.508 162.119 82.8594 164.078V165.154H87.7297Z" fill="#2AD2FF"/>
<path d="M141.57 125.671H8.45129V147.837H141.57V125.671Z" fill="#0460B5"/>
<path d="M21.5943 140.91C24.3461 140.91 26.2552 139.173 26.2552 136.528C26.2552 133.882 24.3461 132.132 21.5943 132.132H18.1315V140.91H21.5943ZM21.5943 139.265H20.0011V133.777H21.5943C23.3981 133.777 24.3461 134.974 24.3461 136.528C24.3461 138.015 23.3323 139.265 21.5943 139.265Z" fill="white"/>
<path d="M34.0598 140.91V139.265H29.7149V137.278H33.9677V135.633H29.7149V133.777H34.0598V132.132H27.8453V140.91H34.0598Z" fill="white"/>
<path d="M38.9052 141.068C41.2751 141.068 42.4205 139.857 42.4205 138.251C42.4205 134.974 37.3779 135.909 37.3779 134.513C37.3779 133.987 37.8255 133.632 38.6287 133.632C39.524 133.632 40.4721 133.934 41.183 134.592L42.223 133.224C41.3541 132.421 40.1956 132 38.7999 132C36.7327 132 35.4688 133.211 35.4688 134.671C35.4688 137.975 40.5247 136.909 40.5247 138.462C40.5247 138.962 40.0245 139.436 38.9974 139.436C37.786 139.436 36.8249 138.896 36.2061 138.251L35.1923 139.673C36.0086 140.502 37.2199 141.068 38.9052 141.068Z" fill="white"/>
<path d="M45.8122 140.91V132.132H43.9428V140.91H45.8122Z" fill="white"/>
<path d="M52.0719 141.08C53.6649 141.08 54.916 140.422 55.8112 139.422V136.053H51.6243V137.685H53.9414V138.738C53.5859 139.067 52.8487 139.409 52.0719 139.409C50.4786 139.409 49.3201 138.185 49.3201 136.527C49.3201 134.868 50.4786 133.644 52.0719 133.644C53.0067 133.644 53.7571 134.171 54.152 134.789L55.7059 133.947C55.0476 132.907 53.9019 131.986 52.0719 131.986C49.5044 131.986 47.398 133.75 47.398 136.527C47.398 139.291 49.5044 141.08 52.0719 141.08Z" fill="white"/>
<path d="M65.4191 140.91V132.132H63.5493V137.646L59.481 132.132H57.5585V140.91H59.4283V135.185L63.6152 140.91H65.4191Z" fill="white"/>
<path d="M74.5237 140.91L72.5489 137.567C73.4968 137.343 74.471 136.514 74.471 134.961C74.471 133.329 73.352 132.132 71.5217 132.132H67.4138V140.91H69.2836V137.791H70.6528L72.3778 140.91H74.5237ZM71.2452 136.146H69.2836V133.777H71.2452C71.9956 133.777 72.5621 134.224 72.5621 134.961C72.5621 135.698 71.9956 136.146 71.2452 136.146Z" fill="white"/>
<path d="M80.1008 141.068C82.7737 141.068 84.0638 139.581 84.0638 137.396V132.132H82.1545V137.343C82.1545 138.567 81.4568 139.41 80.1008 139.41C78.7444 139.41 78.0335 138.567 78.0335 137.343V132.132H76.1378V137.409C76.1378 139.568 77.4279 141.068 80.1008 141.068Z" fill="white"/>
<path d="M89.1774 141.068C91.5475 141.068 92.6928 139.857 92.6928 138.251C92.6928 134.974 87.6503 135.909 87.6503 134.513C87.6503 133.987 88.0979 133.632 88.9009 133.632C89.7965 133.632 90.7444 133.934 91.4553 134.592L92.4953 133.224C91.6265 132.421 90.468 132 89.0721 132C87.0052 132 85.741 133.211 85.741 134.671C85.741 137.975 90.7971 136.909 90.7971 138.462C90.7971 138.962 90.2968 139.436 89.2699 139.436C88.0584 139.436 87.0973 138.896 86.4786 138.251L85.4645 139.673C86.2811 140.502 87.4923 141.068 89.1774 141.068Z" fill="white"/>
<path d="M102.115 140.91V132.132H100.232V135.58H96.085V132.132H94.2152V140.91H96.085V137.225H100.232V140.91H102.115Z" fill="white"/>
<path d="M104.925 141.055C105.505 141.055 105.992 140.568 105.992 139.989C105.992 139.41 105.505 138.923 104.925 138.923C104.346 138.923 103.859 139.41 103.859 139.989C103.859 140.568 104.346 141.055 104.925 141.055Z" fill="white"/>
<path d="M110.613 141.067C111.916 141.067 112.706 140.501 113.127 139.909L112.034 138.896C111.732 139.317 111.271 139.58 110.692 139.58C109.678 139.58 108.967 138.83 108.967 137.724C108.967 136.619 109.678 135.882 110.692 135.882C111.271 135.882 111.732 136.119 112.034 136.566L113.127 135.54C112.706 134.96 111.916 134.395 110.613 134.395C108.651 134.395 107.242 135.777 107.242 137.724C107.242 139.685 108.651 141.067 110.613 141.067Z" fill="white"/>
<path d="M117.433 141.067C119.54 141.067 120.803 139.541 120.803 137.724C120.803 135.921 119.54 134.395 117.433 134.395C115.34 134.395 114.076 135.921 114.076 137.724C114.076 139.541 115.34 141.067 117.433 141.067ZM117.433 139.58C116.393 139.58 115.814 138.725 115.814 137.724C115.814 136.737 116.393 135.882 117.433 135.882C118.473 135.882 119.066 136.737 119.066 137.724C119.066 138.725 118.473 139.58 117.433 139.58Z" fill="white"/>
<path d="M131.88 140.909V136.316C131.88 135.013 131.182 134.395 130.01 134.395C129.035 134.395 128.193 134.974 127.824 135.553C127.587 134.829 126.995 134.395 126.06 134.395C125.086 134.395 124.243 135 123.98 135.382V134.552H122.307V140.909H123.98V136.632C124.23 136.277 124.717 135.882 125.296 135.882C125.981 135.882 126.244 136.303 126.244 136.895V140.909H127.93V136.619C128.167 136.277 128.654 135.882 129.246 135.882C129.931 135.882 130.194 136.303 130.194 136.895V140.909H131.88Z" fill="white"/>
<path opacity="0.2" fill-rule="evenodd" clip-rule="evenodd" d="M50.4802 76.4905H43.0995V75.7979H50.4802V76.4905Z" fill="white"/>
<path opacity="0.2" fill-rule="evenodd" clip-rule="evenodd" d="M108.049 76.4905H100.669V75.7979H108.049V76.4905Z" fill="white"/>
<path d="M65.5153 79.2606C66.9343 79.2606 67.6663 78.3742 67.6663 77.2548C67.6663 76.3348 67.0452 75.57 66.2469 75.448C66.9455 75.304 67.5219 74.6723 67.5219 73.7524C67.5219 72.7662 66.8015 71.8682 65.3932 71.8682H61.5016V79.2606H65.5153ZM65.0497 74.8051H63.0762V73.2535H65.0497C65.5819 73.2535 65.9146 73.5749 65.9146 74.0295C65.9146 74.5061 65.5819 74.8051 65.0497 74.8051ZM65.1159 77.8753H63.0762V76.1909H65.1159C65.7259 76.1909 66.0586 76.5673 66.0586 77.0331C66.0586 77.565 65.7036 77.8753 65.1159 77.8753Z" fill="#2AD2FF"/>
<path d="M74.8632 79.2606V77.8753H71.2041V76.1909H74.7854V74.8051H71.2041V73.2535H74.8632V71.8682H69.6295V79.2606H74.8632Z" fill="#2AD2FF"/>
<path d="M79.5088 79.3943C81.4935 79.3943 82.4689 78.3747 82.4689 77.0224C82.4689 74.2629 78.2226 75.0497 78.2226 73.8861C78.2226 73.4426 78.5996 73.1543 79.2646 73.1543C80.0186 73.1543 80.8169 73.4095 81.4157 73.9634L82.2918 72.7886C81.5597 72.1127 80.5843 71.7578 79.409 71.7578C77.6681 71.7578 76.6037 72.7775 76.6037 74.0077C76.6037 76.7895 80.8616 75.8919 80.8616 77.1775C80.8616 77.6098 80.4511 77.9978 79.5754 77.9978C78.5553 77.9978 77.7459 77.532 77.2249 76.9893L76.36 78.2195C77.0585 78.9174 78.0786 79.3943 79.5088 79.3943Z" fill="#2AD2FF"/>
<path d="M87.4464 79.2606V73.2535H89.5975V71.8682H83.6988V73.2535H85.861V79.2606H87.4464Z" fill="#2AD2FF"/>
<rect x="58.8889" y="158" width="34.2222" height="11" fill="#001D51"/>
<path d="M63.3559 165V164.115L66.1831 161.431C66.4203 161.207 66.5966 161.01 66.7119 160.841C66.8271 160.671 66.9017 160.515 66.9356 160.373C66.9763 160.224 66.9966 160.085 66.9966 159.956C66.9966 159.631 66.8847 159.38 66.661 159.203C66.4373 159.02 66.1085 158.929 65.6746 158.929C65.3288 158.929 65.0136 158.99 64.7288 159.112C64.4508 159.234 64.2102 159.42 64.0068 159.671L63.0814 158.959C63.3593 158.586 63.7322 158.298 64.2 158.095C64.6746 157.885 65.2034 157.78 65.7864 157.78C66.3017 157.78 66.7492 157.864 67.1288 158.034C67.5153 158.197 67.8102 158.431 68.0136 158.736C68.2237 159.041 68.3288 159.403 68.3288 159.824C68.3288 160.054 68.2983 160.285 68.2373 160.515C68.1763 160.739 68.061 160.976 67.8915 161.227C67.722 161.478 67.4746 161.759 67.1492 162.071L64.7186 164.38L64.4441 163.881H68.6034V165H63.3559ZM72.3359 165.102C71.7732 165.102 71.2647 164.959 70.8105 164.675C70.363 164.39 70.0105 163.976 69.7529 163.434C69.4952 162.885 69.3664 162.22 69.3664 161.441C69.3664 160.661 69.4952 160 69.7529 159.458C70.0105 158.908 70.363 158.492 70.8105 158.207C71.2647 157.922 71.7732 157.78 72.3359 157.78C72.9054 157.78 73.4139 157.922 73.8613 158.207C74.3088 158.492 74.6613 158.908 74.919 159.458C75.1834 160 75.3156 160.661 75.3156 161.441C75.3156 162.22 75.1834 162.885 74.919 163.434C74.6613 163.976 74.3088 164.39 73.8613 164.675C73.4139 164.959 72.9054 165.102 72.3359 165.102ZM72.3359 163.953C72.6681 163.953 72.9562 163.864 73.2003 163.688C73.4444 163.505 73.6342 163.227 73.7698 162.854C73.9122 162.481 73.9834 162.01 73.9834 161.441C73.9834 160.864 73.9122 160.393 73.7698 160.027C73.6342 159.654 73.4444 159.38 73.2003 159.203C72.9562 159.02 72.6681 158.929 72.3359 158.929C72.0173 158.929 71.7325 159.02 71.4817 159.203C71.2376 159.38 71.0444 159.654 70.902 160.027C70.7664 160.393 70.6986 160.864 70.6986 161.441C70.6986 162.01 70.7664 162.481 70.902 162.854C71.0444 163.227 71.2376 163.505 71.4817 163.688C71.7325 163.864 72.0173 163.953 72.3359 163.953ZM76.1075 165V164.115L78.9346 161.431C79.1719 161.207 79.3482 161.01 79.4635 160.841C79.5787 160.671 79.6533 160.515 79.6872 160.373C79.7279 160.224 79.7482 160.085 79.7482 159.956C79.7482 159.631 79.6363 159.38 79.4126 159.203C79.1889 159.02 78.8601 158.929 78.4262 158.929C78.0804 158.929 77.7651 158.99 77.4804 159.112C77.2024 159.234 76.9618 159.42 76.7584 159.671L75.8329 158.959C76.1109 158.586 76.4838 158.298 76.9516 158.095C77.4262 157.885 77.955 157.78 78.538 157.78C79.0533 157.78 79.5007 157.864 79.8804 158.034C80.2668 158.197 80.5618 158.431 80.7651 158.736C80.9753 159.041 81.0804 159.403 81.0804 159.824C81.0804 160.054 81.0499 160.285 80.9889 160.515C80.9279 160.739 80.8126 160.976 80.6431 161.227C80.4736 161.478 80.2262 161.759 79.9007 162.071L77.4702 164.38L77.1957 163.881H81.355V165H76.1075ZM84.3553 165.102C83.8536 165.102 83.3621 165.031 82.8807 164.888C82.4061 164.739 82.0061 164.536 81.6807 164.278L82.2502 163.251C82.5078 163.461 82.8197 163.631 83.1858 163.759C83.5519 163.888 83.935 163.953 84.335 163.953C84.8095 163.953 85.179 163.858 85.4434 163.668C85.7078 163.471 85.84 163.207 85.84 162.875C85.84 162.549 85.718 162.292 85.4739 162.102C85.2299 161.912 84.8367 161.817 84.2943 161.817H83.6434V160.912L85.6773 158.492L85.8502 158.99H82.0265V157.881H86.8773V158.766L84.8434 161.186L84.1519 160.78H84.5485C85.4231 160.78 86.0773 160.976 86.5112 161.369C86.9519 161.756 87.1722 162.254 87.1722 162.864C87.1722 163.264 87.0705 163.634 86.8672 163.973C86.6638 164.312 86.3519 164.586 85.9316 164.797C85.518 165 84.9926 165.102 84.3553 165.102Z" fill="#2AD2FF"/>
<defs>
<linearGradient id="paint0_linear_902_148" x1="75.0203" y1="10.8049" x2="75.0203" y2="165.368" gradientUnits="userSpaceOnUse">
<stop stop-color="#0460B5"/>
<stop offset="1" stop-color="#001D51"/>
</linearGradient>
<linearGradient id="paint1_linear_902_148" x1="75.3227" y1="52.9917" x2="75.3227" y2="43.4634" gradientUnits="userSpaceOnUse">
<stop offset="1" stop-color="#2AD2FF"/>
</linearGradient>
</defs>
</svg>
